<svg xmlns="http://www.w3.org/2000/svg" width="48" height="38" viewBox="0 0 12.7 10.05"  xmlns:v="https://vecta.io/nano"><path d="M6.35.1C3.94.1 2 2.03 1.98 4.43h0v4.98l1.83-1.38V4.77h0c.01-1.4 1.14-2.52 2.54-2.52s2.53 1.12 2.54 2.52h0v3.26l1.83 1.38V4.43h0C10.69 2.03 8.75.1 6.35.1zM4.43 8.55L2.6 9.93h3.33l.41.02c.14 0 .28-.01.41-.02h3.33L8.27 8.55H4.43z" fill="#4d4d4d"/><path d="M6.35 3.42c-.21 0-.42.05-.61.16-.38.22-.61.62-.61 1.05v.47H5.1c-.13 0-.24.11-.24.24v1.97c0 .13.11.24.24.24h2.5c.13 0 .24-.11.24-.24V5.34c0-.13-.11-.24-.24-.24h-.04v-.47c0-.43-.23-.84-.61-1.05-.19-.11-.4-.16-.61-.16zm0 .34c.15 0 .3.04.44.12.27.16.43.44.43.75v.47H5.48v-.47c0-.31.17-.6.43-.75.13-.08.28-.12.43-.12z" fill="#55d400"/></svg>