<svg xmlns="http://www.w3.org/2000/svg" width="48" height="38" viewBox="0 0 12.7 10.05"  xmlns:v="https://vecta.io/nano"><path d="M5.78.16a7.8 7.8 0 0 0-1.19.16 6.2 6.2 0 0 0-.96.26 7.1 7.1 0 0 0-1.2.48 9 9 0 0 0-1.92 1.3c-.25.22-.33.31-.38.4-.05.1-.07.19-.06.31.01.18.07.31.2.44.18.18.42.24.64.16.11-.04.16-.08.32-.22a7.6 7.6 0 0 1 1.1-.85 7 7 0 0 1 1.72-.8 6.8 6.8 0 0 1 1.75-.35 12 12 0 0 1 1.2 0 10.1 10.1 0 0 1 1.24.23 7 7 0 0 1 1.23.44 7.5 7.5 0 0 1 2.01 1.35c.14.13.23.19.35.21.1.02.24.02.34-.02.2-.07.37-.25.43-.46.02-.09.02-.29 0-.37-.03-.12-.09-.18-.37-.43C11.28 1.53 10.16.9 8.9.52L7.98.29 6.99.16a12.2 12.2 0 0 0-1.21 0zm.11 2.38a5.1 5.1 0 0 0-.71.1 5.9 5.9 0 0 0-1.01.27 6.4 6.4 0 0 0-2.16 1.32c-.21.19-.26.26-.29.42-.1.43.3.86.74.8.13-.02.23-.07.35-.19.49-.44.82-.68 1.27-.9a5.3 5.3 0 0 1 1.79-.52 5.7 5.7 0 0 1 .94 0c.44.05.76.11 1.12.23.75.25 1.38.63 1.97 1.18a.6.6 0 0 0 .46.2c.18 0 .31-.06.45-.2.21-.2.26-.48.15-.72-.04-.08-.06-.11-.19-.24-.54-.53-1.28-1.01-2.04-1.31a6.5 6.5 0 0 0-2.83-.44zm.18 2.39a4 4 0 0 0-2.48 1.12c-.18.17-.22.24-.25.37a.7.7 0 0 0 .37.73c.11.06.19.07.32.07.17-.01.28-.06.46-.23.46-.43.99-.68 1.59-.74a4.7 4.7 0 0 1 .65 0 2.7 2.7 0 0 1 1.12.43 3.1 3.1 0 0 1 .43.34c.17.15.26.2.45.2s.31-.05.45-.2c.11-.11.17-.21.2-.33.03-.13.01-.3-.06-.42a2.7 2.7 0 0 0-.66-.61c-.52-.36-1.11-.59-1.77-.69-.13-.02-.23-.03-.46-.03h-.34z" fill="#4d4d4d"/><path d="M6.14 7.15c-.57.1-1.03.55-1.14 1.11a1.2 1.2 0 0 0-.02.26c0 .23.04.41.14.61a1.4 1.4 0 0 0 1 .75c.15.02.38.02.52-.01.27-.06.5-.19.71-.41.22-.23.35-.51.38-.82.05-.49-.16-.94-.56-1.23-.16-.12-.33-.2-.54-.25-.12-.03-.37-.04-.5-.02z" fill="red"/></svg>