<svg xmlns="http://www.w3.org/2000/svg" xmlns:xlink="http://www.w3.org/1999/xlink" width="48" height="38" viewBox="0 0 12.7 10.05" xmlns:v="https://vecta.io/nano"><defs><filter id="A" color-interpolation-filters="sRGB"><feColorMatrix result="A" values="2 -0.5 -0.5 0 0 -0.5 2 -0.5 0 0 -0.5 -0.5 2 0 0 0 0 0 1 0 "/><feColorMatrix values="0 0 0 -1 0 0 0 0 -1 0 0 0 0 -1 0 0 0 0 1 0"/><feColorMatrix in="A" values="2 -0.5 -0.5 0 0 -0.5 2 -0.5 0 0 -0.5 -0.5 2 0 0 0 0 0 1 0 "/></filter><path id="B" d="M80.56 75.75h3.91v22.79h-3.91z"/></defs><g transform="translate(-.03 -287.07)"><rect x=".24" y="287.36" width="12.33" height="9.5" ry=".57" fill="#e6e6e6" stroke="#e6e6e6" stroke-linejoin="round" stroke-width=".37" paint-order="normal"/><path transform="matrix(.105 0 0 .0989 -6.0532 280.72)" d="M73.96 75.66h89.41c2.31 0 4.17 1.86 4.17 4.17v52.65h-21.74v9.41h-8.69v12.59h-36.87v-12.59h-8.69v-9.41H69.79V79.83c0-2.31 1.86-4.17 4.17-4.17z" fill="#4d4d4d" filter="url(#A)" stroke="#4d4d4d" stroke-width="2.5"/><g transform="matrix(.1048 0 0 .1048 -6.0697 280.81)" fill="#fff" filter="url(#A)" stroke="#fff"><use xlink:href="#B"/><use xlink:href="#B" x="73.04"/><use xlink:href="#B" x="52.17"/><use xlink:href="#B" x="41.74"/><use xlink:href="#B" x="31.3"/><use xlink:href="#B" x="20.87"/><use xlink:href="#B" x="10.43"/><use xlink:href="#B" x="62.61"/></g><rect x="1.27" y="294.67" width="1.6" height="1.38" ry=".11" fill="#55d400" stroke="#55d400" stroke-width=".22" paint-order="normal"/></g></svg>