<svg xmlns="http://www.w3.org/2000/svg" width="48" height="38" viewBox="0 0 12.7 10.05"  xmlns:v="https://vecta.io/nano"><g transform="matrix(.2408 0 0 .2408 -.1272 -34.79)" fill="#4d4d4d"><path d="M25.56 156.92l-5.38 28.25h13.45l-5.38-28.25z" dominant-baseline="auto"/><circle cx="26.9" cy="157.39" r="5.26"/></g><path d="M1.92 3.36a4 4 0 0 0 .07.54 2.8 2.8 0 0 0 .12.43c.08.25.13.36.22.54a4 4 0 0 0 .59.87c.1.11.14.15.18.17.05.02.08.03.14.03.08 0 .14-.03.2-.09.08-.08.11-.19.07-.29-.02-.05-.03-.07-.1-.14-.16-.17-.28-.32-.39-.5a3.1 3.1 0 0 1-.36-.78c-.09-.28-.12-.44-.16-.79a5.7 5.7 0 0 1 0-.55 4.8 4.8 0 0 1 .1-.56c.05-.18.12-.4.2-.56a3.4 3.4 0 0 1 .61-.91c.06-.06.08-.1.1-.16.01-.05.01-.11-.01-.15-.02-.09-.1-.17-.19-.2-.04-.01-.13-.01-.17 0-.05.02-.08.04-.2.17a3.9 3.9 0 0 0-.86 1.51 5.7 5.7 0 0 0-.1.42 7.6 7.6 0 0 0-.06.45 6.3 6.3 0 0 0 0 .55zM3 3.31c.01.11.02.17.05.32.04.21.07.31.12.46.13.36.33.69.6.98.09.09.12.12.19.13.19.05.39-.14.36-.33-.01-.06-.03-.1-.09-.16-.2-.22-.31-.37-.41-.58a2.4 2.4 0 0 1-.24-.81 2.6 2.6 0 0 1 0-.43c.02-.2.05-.35.11-.51.11-.34.29-.63.53-.89.07-.07.09-.12.09-.21s-.03-.14-.09-.2C4.13.99 4 .96 3.89 1.01c-.04.02-.05.03-.11.09-.24.24-.46.58-.59.92a3 3 0 0 0-.2 1.28zm1.08-.08a1.8 1.8 0 0 0 .51 1.12c.08.08.11.1.17.11.12.03.27-.05.33-.17.03-.05.03-.09.03-.14 0-.08-.03-.13-.11-.21-.2-.21-.31-.45-.34-.72a1.5 1.5 0 0 1 0-.3c.02-.17.09-.36.19-.51a1.4 1.4 0 0 1 .16-.19c.07-.08.09-.12.09-.2s-.02-.14-.09-.21c-.05-.05-.1-.08-.15-.09-.06-.01-.13 0-.19.03a1.4 1.4 0 0 0-.28.3c-.17.24-.27.5-.31.8a1.4 1.4 0 0 0-.01.21v.16zm6.7.13a4 4 0 0 1-.07.54 2.8 2.8 0 0 1-.12.43c-.08.25-.13.36-.22.54a4 4 0 0 1-.59.87c-.1.11-.14.15-.18.17-.05.02-.08.03-.14.03-.08 0-.14-.03-.2-.09-.08-.08-.11-.19-.07-.29.02-.05.03-.07.1-.14.16-.17.28-.32.39-.5a3.1 3.1 0 0 0 .36-.78c.09-.28.12-.44.16-.79a5.7 5.7 0 0 0 0-.55 4.8 4.8 0 0 0-.1-.56c-.05-.18-.12-.4-.2-.56a3.4 3.4 0 0 0-.61-.91c-.06-.06-.08-.1-.1-.16C9.18.56 9.18.5 9.2.46c.03-.09.12-.17.21-.19.04-.01.13-.01.17 0 .05.02.08.04.2.17a3.9 3.9 0 0 1 .86 1.51 5.7 5.7 0 0 1 .1.42 7.6 7.6 0 0 1 .06.45 6.3 6.3 0 0 1 0 .55zM9.7 3.31c-.01.11-.02.17-.05.32-.04.21-.07.31-.12.46-.13.36-.33.69-.6.98-.09.09-.12.12-.19.13-.19.05-.39-.14-.36-.33.01-.06.03-.1.09-.16.2-.22.31-.37.41-.58a2.4 2.4 0 0 0 .24-.81 2.6 2.6 0 0 0 0-.43c-.02-.2-.05-.35-.11-.51-.11-.34-.29-.63-.53-.89-.07-.07-.09-.12-.09-.21s.03-.14.09-.2c.09-.09.22-.12.33-.07.04.02.05.03.11.09.24.24.46.58.59.92a3 3 0 0 1 .2 1.28zm-1.08-.08a1.8 1.8 0 0 1-.51 1.12c-.08.08-.11.1-.17.11-.12.03-.27-.05-.33-.17-.03-.05-.03-.09-.03-.14 0-.08.03-.13.11-.21.2-.21.31-.45.34-.72a1.5 1.5 0 0 0 0-.3c-.02-.17-.09-.36-.19-.51a1.4 1.4 0 0 0-.16-.19c-.07-.08-.09-.12-.09-.2s.02-.14.09-.21c.05-.05.1-.08.15-.09.06-.01.13 0 .19.03a1.4 1.4 0 0 1 .28.3c.17.24.27.5.31.8a1.4 1.4 0 0 1 .01.21v.16z" fill="red"/></svg>