<svg xmlns="http://www.w3.org/2000/svg" xmlns:xlink="http://www.w3.org/1999/xlink" width="48" height="38" viewBox="0 0 12.7 10.1" xmlns:v="https://vecta.io/nano"><path d="M.2.1h12c.1 0 .2.1.2.2v7.7c0 .1-.1.2-.2.2H.2C.1 8.1 0 8 0 7.9V.3C0 .2.1.1.2.1z" fill="#ebebeb" paint-order="normal"/><g fill="#ccc"><path d="M4.2.1H8c0 0 0 0 0 0l.5.6c0 0 0 0 0 0H3.8c0 0 0 0 0 0l.4-.6c0 0 0 0 0 0z"/><path d="M.8.6h10.8c.1 0 .2.1.2.2v6.6c0 .1-.1.2-.2.2H.8c-.1 0-.2-.1-.2-.2V.8C.6.7.7.6.8.6z" paint-order="normal"/></g><path d="M1.5 5.6h2.3s.1 0 .1.1v1.2s0 .1-.1.1H1.5s-.1 0-.1-.1V5.6s0-.1.1-.1zm7 0h2.3s.1 0 .1.1v1.2s0 .1-.1.1H8.5s-.1 0-.1-.1V5.6s0-.1.1-.1z" paint-order="normal" fill="#b5b5b5"/><path d="M4.8 0h2.7c0 0 0 0 0 0l.6.8c0 0 0 0 0 0H4.3c0 0 0 0 0 0l.5-.8h0z" fill="#ebebeb"/><path d="M1.6 1.1h9.1c.1 0 .1.1.1.1v2.2c0 .1-.1.1-.1.1H1.6c-.1 0-.1-.1-.1-.1V1.2c0-.1.1-.1.1-.1z" fill="#b5b5b5" paint-order="normal"/><g fill="#d9d9d9"><use xlink:href="#B"/><use xlink:href="#B" x="5.7"/><use xlink:href="#B" x="4.1"/><use xlink:href="#B" x="3.3"/><use xlink:href="#B" x="2.5"/><use xlink:href="#B" x="1.7"/><use xlink:href="#B" x="0.8"/><use xlink:href="#B" x="4.9"/><use xlink:href="#B" x="6.6"/><use xlink:href="#B" x="-0.8"/></g><defs ><path id="B" d="M3.1 1.3c.1 0 .3 0 .4 0v1c-.1 0-.3 0-.4 0v-1z"/></defs></svg>