<svg xmlns="http://www.w3.org/2000/svg" viewBox="0 0 12.7 10.054" height="38" width="48"  xmlns:v="https://vecta.io/nano"><style><![CDATA[.B{filter:url(#A)}]]></style><defs><filter color-interpolation-filters="sRGB" id="A"><feColorMatrix values="2 -0.5 -0.5 0 0 -0.5 2 -0.5 0 0 -0.5 -0.5 2 0 0 0 0 0 1 0 " result="A"/><feColorMatrix values="0 0 0 -1 0 0 0 0 -1 0 0 0 0 -1 0 0 0 0 1 0"/><feColorMatrix values="2 -0.5 -0.5 0 0 -0.5 2 -0.5 0 0 -0.5 -0.5 2 0 0 0 0 0 1 0 " in="A"/></filter></defs><rect y=".085" width="12.348" height="8.047" ry=".196" fill="#ccc" paint-order="normal"/><g fill="gray"><path d="M4.234.085h3.813c.022 0 .029.015.039.027l.487.605c.01.013-.017.027-.039.027H3.815c-.022 0-.048-.014-.039-.027l.419-.605c.009-.013.017-.027.039-.027z"/><rect ry=".168" height="6.891" width="11.136" y=".63" x=".627" paint-order="normal"/></g><g stroke-width=".027" stroke="#737373" fill="#737373"><rect ry=".072" height="1.301" width="2.434" y="5.552" x="1.446" paint-order="normal"/><rect ry=".072" height="1.301" width="2.434" y="5.552" x="8.471" paint-order="normal"/></g><rect stroke-width=".073" stroke="#737373" fill="#737373" ry=".135" height="2.45" width="9.414" y="1.086" x="1.468" paint-order="normal"/><g fill="#e6e0b2" class="B"><path d="M80.556 75.747h3.906v22.786h-3.906z" transform="matrix(.100041 0 0 .044848 -4.938722 -2.122777)"/><path d="M153.6 75.747h3.906v22.786H153.6z" transform="matrix(.100041 0 0 .044848 -6.526323 -2.122777)"/><path d="M132.73 75.747h3.906v22.786h-3.906z" transform="matrix(.100041 0 0 .044848 -6.072773 -2.122777)"/><path d="M122.3 75.747h3.906v22.786H122.3z" transform="matrix(.100041 0 0 .044848 -5.846414 -2.122777)"/><path d="M111.86 75.747h3.906v22.786h-3.906z" transform="matrix(.100041 0 0 .044848 -5.619105 -2.122777)"/><path d="M101.43 75.747h3.906v22.786h-3.906z" transform="matrix(.100041 0 0 .044848 -5.392746 -2.122777)"/><path d="M90.991 75.747h3.906v22.786h-3.906z" transform="matrix(.100041 0 0 .044848 -5.165556 -2.122777)"/><path d="M143.17 75.747h3.906v22.786h-3.906z" transform="matrix(.100041 0 0 .044848 -6.300082 -2.122777)"/><path d="M153.6 75.747h3.906v22.786H153.6z" transform="matrix(.100041 0 0 .044848 -5.709317 -2.122777)"/><path d="M153.6 75.747h3.906v22.786H153.6z" transform="matrix(.100041 0 0 .044848 -13.063201 -2.122777)"/></g><path d="M4.767 0h2.737c.017 0 .02.02.031.035l.568.774c.011.015-.014.035-.031.035H4.277c-.017 0-.038-.017-.031-.035l.49-.774L4.767 0z" fill="#ccc"/><path d="M6.869 6.652q.243 0 .368.399.249.748.355.748.081 0 .168-.125 1.751-2.804 3.24-4.536.386-.449 1.227-.449.199 0 .268.037.069.037.069.093 0 .087-.206.343-2.405 2.891-4.461 6.106-.143.224-.586.224-.449 0-.53-.037-.212-.093-.498-.953-.324-.953-.324-1.196 0-.262.436-.505.268-.15.474-.15z" fill="#55d400"/></svg>