<svg xmlns="http://www.w3.org/2000/svg" viewBox="0 0 12.7 10.054" height="38" width="48"  xmlns:v="https://vecta.io/nano"><style><![CDATA[.B{filter:url(#A)}]]></style><defs><filter color-interpolation-filters="sRGB" id="A"><feColorMatrix values="2 -0.5 -0.5 0 0 -0.5 2 -0.5 0 0 -0.5 -0.5 2 0 0 0 0 0 1 0 " result="A"/><feColorMatrix values="0 0 0 -1 0 0 0 0 -1 0 0 0 0 -1 0 0 0 0 1 0"/><feColorMatrix values="2 -0.5 -0.5 0 0 -0.5 2 -0.5 0 0 -0.5 -0.5 2 0 0 0 0 0 1 0 " in="A"/></filter></defs><rect fill="#ccc" ry=".196" height="8.047" width="12.348" y=".086" paint-order="normal"/><g fill="gray"><path d="M4.234.086h3.813c.022 0 .029.015.039.027l.487.605c.01.013-.017.027-.039.027H3.815c-.022 0-.048-.014-.039-.027l.419-.605c.009-.013.017-.027.039-.027z"/><rect x=".626" y=".631" width="11.136" height="6.891" ry=".168" paint-order="normal"/></g><g fill="#737373" stroke="#737373"><g stroke-width=".027"><rect x="1.445" y="5.553" width="2.434" height="1.301" ry=".072" paint-order="normal"/><rect x="8.471" y="5.553" width="2.434" height="1.301" ry=".072" paint-order="normal"/></g><rect x="1.468" y="1.087" width="9.414" height="2.45" ry=".135" stroke-width=".073" paint-order="normal"/></g><g fill="#e6e0b2" class="B"><path transform="matrix(.100041 0 0 .044848 -4.939122 -2.121877)" d="M80.556 75.747h3.906v22.786h-3.906z"/><path transform="matrix(.100041 0 0 .044848 -6.526723 -2.121877)" d="M153.6 75.747h3.906v22.786H153.6z"/><path transform="matrix(.100041 0 0 .044848 -6.073173 -2.121877)" d="M132.73 75.747h3.906v22.786h-3.906z"/><path transform="matrix(.100041 0 0 .044848 -5.846814 -2.121877)" d="M122.3 75.747h3.906v22.786H122.3z"/><path transform="matrix(.100041 0 0 .044848 -5.619505 -2.121877)" d="M111.86 75.747h3.906v22.786h-3.906z"/><path transform="matrix(.100041 0 0 .044848 -5.393146 -2.121877)" d="M101.43 75.747h3.906v22.786h-3.906z"/><path transform="matrix(.100041 0 0 .044848 -5.165956 -2.121877)" d="M90.991 75.747h3.906v22.786h-3.906z"/><path transform="matrix(.100041 0 0 .044848 -6.300482 -2.121877)" d="M143.17 75.747h3.906v22.786h-3.906z"/><path transform="matrix(.100041 0 0 .044848 -5.709717 -2.121877)" d="M153.6 75.747h3.906v22.786H153.6z"/><path transform="matrix(.100041 0 0 .044848 -13.063601 -2.121877)" d="M153.6 75.747h3.906v22.786H153.6z"/></g><path fill="#ccc" d="M4.767 0h2.737c.017 0 .02.02.031.035l.568.774c.011.015-.014.035-.031.035H4.277c-.017 0-.038-.017-.031-.035l.49-.774L4.767 0z"/><path d="M10.344 2.748q.047 0 .122.075.08.075.164.197.136-.24.216-.24.07 0 .193.127.075.08.075.179 0 .127-.103.235-.977 1.062-1.898 2.335.381.93 1.053 2.054.056.094.056.15 0 .108-.141.226l-.15.103q.019.056.019.15 0 .141-.103.216-.122.085-.179.085-.122 0-.216-.122-.564-.724-1.165-1.701-.808 1.053-1.852 2.81-.15.254-.508.254-.169 0-.188-.197-.24-.132-.24-.418 0-.376.052-.522.023-.066.15-.263.959-1.494 2.03-2.744-.573-1.363-.761-2.101-.042-.164-.042-.211 0-.066.085-.188.089-.122.164-.122.07 0 .179.136.042-.08.103-.136.085-.075.216-.075.15 0 .197.141.254.789.667 1.504.667-.865 1.626-1.823.113-.113.179-.113z" fill="red"/></svg>