<svg xmlns="http://www.w3.org/2000/svg" width="48" height="38" viewBox="0 0 12.7 10.05"  xmlns:v="https://vecta.io/nano"><path d="M10.67 1.36v.5h.5v-.5zm.5 1h-.5v.5h.5zM9.18.23L6.51.24l-.56.72v.82c-.5 0-1.04-.02-1.56-.01l-.52.01a5.5 5.5 0 0 0-1.85.33C.24 2.93.44 4.9 1.83 5.66c.9.47 2.16.3 3.62.3 1.23 0 2.13.05 2.58.28.72.39.91 1.14.42 1.69-.35.39-1.1.65-2 .66v-.16l-.4-.36H4.32v.33h-.89v1.08h.89v.33h1.74l.4-.38v-.17c1.03 0 1.95-.27 2.5-.88.79-1.04.36-2.24-.63-2.75-.69-.34-1.64-.34-2.88-.34-1.5 0-2.73.08-3.3-.22-1.27-.68-.76-1.93.14-2.33.74-.32 2.29-.28 3.66-.28v.85l.57.58h2.67v-.4h2.4c.21 0 .38-.17.38-.38V1.09c0-.21-.17-.38-.38-.38h-2.4zm0 .87h2.39v2.01H9.18zM3.64 8.61h.68v.66h-.68z" fill="#4d4d4d"/><rect x="6.88" y="1.42" width="1.38" height="1.38" ry=".27" fill="#55d400" paint-order="normal"/></svg>