<svg xmlns="http://www.w3.org/2000/svg" width="48" height="38" viewBox="0 0 12.7 10.05"  xmlns:v="https://vecta.io/nano"><path d="M5.61.47a7.6 7.6 0 0 0-1.16.16c-.37.07-.47.1-.93.26a8.6 8.6 0 0 0-1.17.47A8.6 8.6 0 0 0 .47 2.62c-.24.22-.32.3-.37.39-.05.1-.07.18-.06.3.01.17.07.3.2.43.18.17.41.23.63.16.11-.04.16-.07.31-.21a7.4 7.4 0 0 1 1.08-.83 6.8 6.8 0 0 1 1.67-.78 6.6 6.6 0 0 1 1.7-.34 11.4 11.4 0 0 1 1.17 0 9.1 9.1 0 0 1 1.2.22 6.8 6.8 0 0 1 1.2.43 7.3 7.3 0 0 1 1.96 1.32c.14.13.22.18.34.21.1.02.24.02.33-.02a.7.7 0 0 0 .42-.45c.02-.09.02-.28 0-.36-.03-.11-.09-.18-.36-.42A8.4 8.4 0 0 0 8.65.82L7.75.6 6.79.47a11.6 11.6 0 0 0-1.18 0zm.1 2.33a5 5 0 0 0-.69.1c-.44.09-.67.15-.98.26a6.2 6.2 0 0 0-2.11 1.29c-.2.19-.25.25-.29.41-.1.42.29.84.72.78.13-.02.22-.07.35-.18a5.1 5.1 0 0 1 1.24-.88c.53-.27 1.12-.44 1.75-.51a4.7 4.7 0 0 1 .92 0c.43.05.74.11 1.09.23a5 5 0 0 1 1.92 1.15c.15.14.27.19.45.19.17 0 .3-.06.44-.19.2-.2.25-.46.14-.71-.04-.08-.06-.1-.18-.23a6.1 6.1 0 0 0-1.99-1.28c-.87-.35-1.85-.5-2.76-.43zm.18 2.32c-.94.08-1.8.47-2.41 1.09-.17.17-.21.23-.24.36-.06.26.1.58.36.71.11.06.19.07.31.06.17-.01.27-.06.45-.23a2.6 2.6 0 0 1 1.54-.72 3.7 3.7 0 0 1 .64 0c.37.05.77.2 1.09.41a3 3 0 0 1 .42.33c.16.15.26.19.44.19s.3-.05.44-.19c.11-.11.17-.21.19-.32.03-.13.01-.29-.05-.41s-.36-.39-.64-.59c-.51-.36-1.08-.58-1.73-.67a3 3 0 0 0-.45-.03 7.1 7.1 0 0 0-.34 0z" fill="#4d4d4d"/><path d="M5.96 7.28c-.56.1-1 .53-1.11 1.08-.02.08-.02.15-.02.25 0 .22.04.4.14.6.2.39.56.66.97.73.14.02.37.02.5-.01.26-.05.49-.18.7-.4a1.3 1.3 0 0 0 .37-.8c.04-.48-.15-.91-.54-1.2-.16-.12-.32-.19-.52-.24-.12-.03-.36-.04-.49-.02z" fill="#50d400"/></svg>